<?xml version="1.0" encoding="UTF-8"?>
<svg id="Layer_2" data-name="Layer 2" xmlns="http://www.w3.org/2000/svg" viewBox="0 0 355.65 315.49">
  <defs>
    <style>
      .cls-1 {
        fill: #101726;
        stroke-width: 0px;
      }
    </style>
  </defs>
  <g id="Layer_1-2" data-name="Layer 1">
    <g>
      <g>
        <path class="cls-1" d="M106,315.47c-17.99,0-35.98,0-53.97,0-1.69,0-3.39.07-5.07-.05-2.94-.22-3.84-2.35-2.08-4.78.21-.29.49-.53.72-.81,12.8-15.53,7.83-39.4-10.08-48.56-3.96-2.03-8.17-2.83-12.56-2.89-3.8-.05-4.59-1.23-2.71-4.6,4-7.16,8.14-14.23,12.24-21.34,14.16-24.55,28.32-49.09,42.48-73.64.24-.42.45-.85.72-1.26,1.7-2.59,2.91-2.55,4.24.3,3.53,7.54,7.44,14.88,11.51,22.14,3.91,6.99,3.53,13.76-.34,20.62-6.99,12.39-13.54,25.02-20.48,37.44-8.73,15.61.19,34.64,17.57,38.46,2.03.44,4.08.44,6.12.44,17.63,0,35.25-.12,52.88-.01,11.13.06,19.12-4.98,24.55-14.4,6.27-10.86,12.42-21.79,18.64-32.68,2.53-4.43,6.21-4.48,8.79-.15,4.26,7.15,8.46,14.33,12.81,21.42,2.14,3.49,1.97,6.5-.27,10.03-7.14,11.32-13.84,22.92-20.43,34.57-2.03,3.58-4.31,7-7.24,9.91-6.55,6.49-14.37,9.9-23.71,9.85-18.11-.09-36.22-.03-54.33-.03h0Z"/>
        <path class="cls-1" d="M42.75,290.25c-.12,11.71-9.91,21.31-21.66,21.25-11.83-.06-21.23-9.72-21.09-21.67.14-11.87,9.84-21.4,21.61-21.22,11.97.19,21.26,9.69,21.14,21.64Z"/>
      </g>
      <g>
        <path class="cls-1" d="M189.75,314.94c-.05-.94.66-1.52,1.15-2.14,5.97-7.6,11.26-15.67,16.45-23.81,3.59-5.63,8.63-8.17,15.15-8.17,12.31,0,24.63-.12,36.94.06,14.1.2,24.46-10.29,27.26-20.82,2-7.54,1.37-14.88-2.36-21.75-8.11-14.94-16.26-29.85-24.58-44.67-5.53-9.85-13.98-14.93-25.47-14.82-12.8.12-25.59.02-38.39,0-.97,0-1.95.1-2.89-.06-2.97-.48-4.52-3.17-3.21-5.9,1.35-2.82,2.97-5.52,4.56-8.21,3.26-5.5,6.64-10.92,9.84-16.45,1.04-1.79,2.27-2.45,4.35-2.44,15.81.08,31.63-.04,47.44.08,13.47.1,23.55,6.07,29.98,18.01,5.72,10.62,12.11,20.85,18.06,31.33,5.12,9.01,10.17,18.07,15.25,27.1,4.96,8.83,9.91,17.66,14.86,26.49.82,1.47,1.79,2.91,2.31,4.49,1.33,4-.06,4.97-3.15,4.86-12.61-.42-26.99,10.59-29.42,24.84-1.74,10.21-.07,19.71,7.19,27.67.57.62,1.19,1.17,1.36,2.08.25,1.3-.18,2.15-1.47,2.43-.7.15-1.44.1-2.16.1-39.11,0-78.23-.01-117.34-.03-.56,0-1.17.18-1.7-.27Z"/>
        <path class="cls-1" d="M355.65,289.96c.05,11.98-9.07,21.33-20.83,21.34-11.47,0-20.72-9.36-20.83-21.08-.12-12.22,8.88-21.36,21.08-21.42,11.5-.06,20.52,9.22,20.58,21.17Z"/>
      </g>
      <g>
        <path class="cls-1" d="M268.41,136.6c-1.22.82-2.59.48-3.84.31-8.78-1.19-17.6-.56-26.4-.74-1.33-.03-2.67.03-3.98-.13-4.67-.54-7.82-3.2-10.3-7.09-6.95-10.88-14.06-21.65-21.1-32.47-1.84-2.83-3.58-5.74-5.52-8.5-6.85-9.72-21.08-12.62-31.37-6.65-4.34,2.52-7.44,6.04-9.87,10.31-7.51,13.22-14.98,26.45-22.58,39.62-6.33,10.97-6.09,21.92.38,32.57,5.26,8.65,11.09,16.97,16.64,25.44,2.78,4.24,5.5,8.51,8.27,12.75.95,1.46,1.78,2.91.85,4.7-1.01,1.94-2.78,2.04-4.66,2.04-9.54-.03-19.08-.02-28.62-.03-4.85,0-8.66-1.94-11.09-6.21-7.34-12.9-14.87-25.7-21.85-38.79-3.74-7.02-4.57-14.77-3.89-22.82.71-8.46,4.93-15.25,8.97-22.24,7.79-13.47,15.52-26.98,23.29-40.46,6.75-11.7,13.53-23.39,20.28-35.09,1.27-2.19,2.38-4.48,3.74-6.62,1.68-2.64,3.69-2.59,5.09.24,3.84,7.76,10.05,12.37,18.26,14.75,13.45,3.89,29.07-1.88,35.25-13.84.22-.43.44-.86.7-1.27,1.46-2.31,3.62-2.44,5.08-.13,2.26,3.57,4.34,7.24,6.48,10.89,13.37,22.78,26.68,45.6,40.14,68.34,3.63,6.13,7.26,12.24,10.75,18.45.46.81,1.16,1.57.91,2.67Z"/>
        <path class="cls-1" d="M157.17,21.52C156.81,8.33,167.24,0,177.67,0c11.71,0,20.7,9.22,20.92,21.26.2,10.99-9.16,20.72-20.49,20.87-12.53.16-21.64-10.61-20.94-20.61Z"/>
      </g>
    </g>
  </g>
</svg>