<?xml version="1.0" encoding="UTF-8"?>
<svg id="Layer_2" data-name="Layer 2" xmlns="http://www.w3.org/2000/svg" viewBox="0 0 783.06 66.83">
  <defs>
    <style>
      .cls-1 {
        fill: #101726;
        stroke-width: 0px;
      }
    </style>
  </defs>
  <g id="Layer_1-2" data-name="Layer 1">
    <g>
      <path class="cls-1" d="M179.84,40.34c6.18,8.49,12.4,17.02,18.91,25.96-3.61.56-6.8.22-9.97.28-1.31.03-1.75-1.17-2.37-2.01-5.25-7.07-10.52-14.12-15.67-21.26-1.23-1.7-2.48-2.54-4.7-2.51-10.26.13-20.52.06-30.77.06-3.69,0-3.23,0-3.24,3.41-.02,6.52,0,13.03-.04,19.55-.01,2.67-.04,2.73-2.8,2.71-1.91-.01-4.33.84-5.62-.31-1.49-1.32-.58-3.87-.58-5.86-.05-18.59-.03-37.17-.02-55.76,0-.97.03-1.93.02-2.9-.02-1.06.49-1.52,1.54-1.48.72.03,1.45,0,2.17,0,15.93,0,31.86.02,47.79,0,2.8,0,5.54.29,8.24,1.01,6.45,1.73,10.84,5.81,12.83,12.12,3.78,11.97-2.74,22.92-12.87,25.77-.87.24-1.94.15-2.83,1.23ZM155.43,8.95c-7,0-14,.05-21-.04-1.88-.02-2.49.57-2.46,2.47.1,6.03.01,12.07.03,18.1,0,2.66.05,2.71,2.84,2.71,12.79.02,25.59,0,38.38.01,1.83,0,3.62-.26,5.37-.73,4.46-1.2,7.89-5.07,8.43-9.41.94-7.6-3.57-12.93-11.32-13.09-6.76-.13-13.52-.03-20.28-.03Z"/>
      <path class="cls-1" d="M650.19,53.13c0-1.29,0-2.58,0-3.87,0-15.33,0-30.66.03-45.99,0-2.98.03-2.99,2.86-3.02,1.92-.02,3.84,0,5.54,0,.95.9.68,1.78.68,2.58,0,20.28,0,40.56-.01,60.84,0,2.89-.04,2.89-2.99,2.94-.36,0-.73-.04-1.09,0-3.07.43-5.35-.73-7.73-2.79-17.95-15.58-36.05-30.99-54.11-46.44-1.42-1.21-2.89-2.36-5.01-4.09,0,2.12,0,3.39,0,4.67,0,15.21,0,30.42-.01,45.63,0,2.96-.03,2.97-2.92,3-1.92.02-3.84,0-6,0V.49c2.18-.56,4.47-.13,6.72-.27,1.55-.1,2.36,1.11,3.33,1.94,11.84,10.11,23.64,20.26,35.46,30.38,8.15,6.97,16.32,13.92,24.48,20.88.26-.1.51-.2.77-.3Z"/>
      <path class="cls-1" d="M758.05,66.58c-6.16,0-12.33-.26-18.47.05-15.86.8-32.36-12.17-33-31.89-.63-19.14,12.76-30.97,26.21-33.98,1.91-.43,3.82-.54,5.75-.55,13.64-.01,27.29,0,40.93,0,.6,0,1.21.02,1.81,0,1.1-.03,1.34.58,1.45,1.57.77,7.14.79,7.14-6.44,7.14-11.83,0-23.67.07-35.5-.03-10.16-.09-17.86,4.04-22.2,13.26-4.5,9.55-3.29,18.88,3.01,27.29,4.6,6.14,11.23,8.53,18.72,8.57,12.8.06,25.6,0,38.4,0,.85,0,1.69.02,2.54,0,1.07-.01,1.37.53,1.48,1.55.75,6.87.71,6.95-6.21,6.97-6.16.01-12.32,0-18.47,0h0Z"/>
      <path class="cls-1" d="M35.09,66.31c-.45-1.28-.23-2.49-.23-3.69-.02-16.53,0-33.06,0-49.6,0-.84-.03-1.69,0-2.53.03-1.03-.38-1.58-1.46-1.55-.84.02-1.69,0-2.53,0-9.17,0-18.34,0-27.51,0-3.59,0-3.32.02-3.28-3.4.02-1.68-.23-3.37.19-5.02C1.32.04,2.42.23,3.49.23c24.13-.01,48.27-.01,72.4-.01.6,0,1.21.04,1.81,0,1.12-.08,1.35.48,1.45,1.51.64,7.2.67,7.2-6.66,7.21-8.33,0-16.65,0-24.98.02-3.72,0-3.55-.44-3.55,3.47,0,16.53.01,33.06.02,49.59,0,.72-.08,1.46.01,2.17.26,1.98-.67,2.57-2.49,2.4-2.14-.2-4.32.26-6.41-.28Z"/>
      <path class="cls-1" d="M533.5.21c-.4,1.54-1.47,2.19-2.29,3-11.16,11.03-22.04,22.35-33,33.58-1.32,1.35-1.77,2.64-1.75,4.44.08,7.12.04,14.25.04,21.37,0,1.2,0,2.4,0,3.49-.43.21-.64.41-.85.41-2.53,0-5.65.84-7.42-.33-1.76-1.16-.55-4.49-.59-6.86-.1-5.91-.11-11.83.02-17.75.04-1.99-.62-3.36-2-4.74-11.28-11.25-22.51-22.57-33.73-33.89-.73-.74-1.72-1.3-2.1-2.71,3.73,0,7.32.04,10.91-.02,1.46-.02,2.08,1.07,2.9,1.9,8.48,8.6,16.95,17.2,25.41,25.81.84.86,1.62,1.78,2.38,2.62,1.59-.5,2.27-1.69,3.17-2.6,8.48-8.59,16.98-17.17,25.39-25.83,1.39-1.43,2.79-2.04,4.75-1.94,2.87.14,5.76.04,8.77.04Z"/>
      <path class="cls-1" d="M319.82.42c.74-.09,1.1-.18,1.45-.18,3.5,0,7.21-.7,10.43.26,3.24.97,5.28,4.39,7.79,6.78,7.86,7.48,15.68,15.01,23.52,22.51.95.91,1.97,1.76,3.34,2.98-3.11,2.99-5.98,5.71-8.81,8.48-8.01,7.85-16.02,15.7-23.96,23.63-1.21,1.21-2.38,1.8-4.09,1.74-3.22-.11-6.45-.03-10.16-.03,1.45-2.18,3.08-3.54,4.57-4.99,9.09-8.81,18.21-17.59,27.31-26.4,2.22-2.15,2.24-2.21,0-4.35-9.22-8.85-18.47-17.67-27.69-26.52-1.2-1.15-2.3-2.4-3.72-3.89Z"/>
      <path class="cls-1" d="M253.8,33.13c0-9.77-.01-19.54,0-29.31,0-3.99-.5-3.53,3.75-3.6,1.09-.02,2.18.12,3.25-.01,2.01-.24,2.36.73,2.35,2.5-.05,20.5-.06,41.01.02,61.51,0,2.02-.76,2.51-2.53,2.36-2.15-.18-4.85.86-6.31-.47-1.49-1.36-.51-4.09-.52-6.21-.06-8.92-.03-17.85-.02-26.78Z"/>
      <path class="cls-1" d="M400.19,66.59c-3.47,0-6.95,0-10.42,0-.87,0-1.64-.12-2.3-.79-7.01-7.1-14.35-13.87-21.78-20.62,2.21-2.34,4.25-4.49,6.45-6.82,9.63,9.3,19.05,18.39,28.47,27.49-.14.25-.28.49-.43.74Z"/>
      <path class="cls-1" d="M400.54.21c-1.75,1.74-2.99,3.02-4.28,4.25-7.47,7.16-14.95,14.32-22.44,21.47-1.79,1.7-1.86,1.72-3.62-.02-1.52-1.49-4.13-2.72-4.06-4.73.06-1.74,2.59-2.92,4.06-4.33,5.13-4.91,10.32-9.76,15.41-14.71,1.37-1.33,2.73-2.09,4.74-1.98,3.2.18,6.41.05,10.19.05Z"/>
    </g>
  </g>
</svg>